<?xml version="1.0" standalone="no"?>
<!DOCTYPE svg PUBLIC "-//W3C//DTD SVG 20010904//EN"
 "http://www.w3.org/TR/2001/REC-SVG-20010904/DTD/svg10.dtd">
<svg version="1.0" xmlns="http://www.w3.org/2000/svg"
 width="665.000000pt" height="440.000000pt" viewBox="0 0 665.000000 440.000000"
 preserveAspectRatio="xMidYMid meet">

<g transform="translate(0.000000,440.000000) scale(0.100000,-0.100000)"
fill=" #7C1CA7" stroke="none">
<path d="M68 4373 c-14 -9 -31 -27 -37 -40 -8 -17 -11 -648 -11 -2129 l0
-2106 34 -34 34 -34 3236 2 3236 3 27 28 28 27 3 2115 2 2115 -29 32 -29 33
-3234 2 c-2998 2 -3235 1 -3260 -14z m3492 -975 c29 -15 56 -40 78 -72 32 -48
32 -50 32 -167 0 -110 2 -120 24 -146 24 -27 27 -28 153 -33 144 -6 172 -16
227 -83 l31 -39 0 -228 0 -228 -31 -38 c-57 -71 -75 -79 -185 -82 l-99 -4 0
61 0 61 79 0 c74 0 81 2 100 26 19 25 21 40 21 201 0 96 -4 183 -10 193 -15
28 -65 40 -172 40 -195 0 -258 66 -258 271 0 108 -10 141 -47 158 -29 13 -331
15 -366 2 -44 -17 -48 -49 -45 -315 4 -314 -19 -286 233 -286 199 0 244 -9
292 -61 49 -54 53 -79 53 -370 0 -303 -1 -311 -70 -373 -50 -45 -106 -56 -280
-56 -174 0 -230 11 -280 56 -60 54 -70 86 -70 214 0 61 -5 120 -10 130 -19 36
-52 45 -182 50 -140 6 -153 11 -212 84 l-31 38 -3 201 c-4 219 2 256 45 308
42 49 95 69 191 69 l82 0 0 -60 0 -60 -66 0 c-66 0 -99 -11 -121 -39 -9 -11
-12 -69 -13 -192 0 -163 2 -178 21 -203 20 -25 24 -26 127 -26 128 0 170 -11
219 -53 59 -52 73 -95 73 -225 0 -106 1 -114 25 -137 24 -25 26 -25 205 -25
179 0 181 0 205 25 l25 24 0 250 c0 137 -3 257 -6 265 -13 35 -47 41 -251 46
l-201 5 -39 31 c-21 16 -48 50 -60 74 -22 43 -23 54 -23 318 0 248 2 276 19
310 10 20 30 47 43 59 50 47 81 52 288 53 184 0 199 -1 240 -22z m-390 -1868
c0 -73 9 -97 25 -70 11 18 91 11 116 -9 22 -18 24 -27 27 -140 l4 -121 -49 0
-48 0 3 66 c7 122 -13 160 -60 117 -15 -13 -18 -31 -18 -100 l0 -83 -50 0 -50
0 0 210 0 210 50 0 50 0 0 -80z m-700 35 c63 -33 92 -90 92 -181 -1 -90 -30
-142 -108 -191 -17 -10 -15 -13 21 -28 24 -11 52 -15 73 -11 l34 5 -7 -37 c-9
-46 -9 -47 -53 -46 -63 0 -92 13 -146 63 -28 27 -63 51 -78 55 -39 9 -92 65
-106 113 -38 128 18 245 131 274 39 9 113 2 147 -16z m-928 5 c56 -16 88 -60
88 -122 0 -90 -39 -129 -142 -144 l-48 -6 0 -54 0 -54 -50 0 -50 0 0 195 0
195 83 0 c45 0 99 -5 119 -10z m313 -112 c21 -68 42 -126 45 -130 3 -4 25 51
49 122 l42 130 65 0 64 0 0 -195 0 -195 -51 0 -51 0 3 115 c2 63 3 115 2 115
-1 0 -19 -52 -40 -115 l-37 -115 -42 0 c-47 0 -42 -8 -98 155 l-25 70 0 -112
-1 -113 -50 0 -50 0 0 195 0 195 68 0 68 0 39 -122z m1099 108 c51 -21 76 -60
76 -118 0 -91 -37 -129 -137 -143 l-53 -7 0 -54 0 -54 -50 0 -50 0 0 195 0
195 90 0 c54 0 104 -6 124 -14z m652 -120 c14 -15 20 -37 22 -95 3 -53 8 -80
19 -88 11 -8 13 -21 8 -43 -9 -40 -23 -45 -70 -26 -32 14 -40 14 -65 1 -16 -8
-38 -15 -49 -15 -56 0 -100 53 -87 105 8 31 60 65 101 65 39 0 57 13 49 33 -8
21 -40 22 -52 2 -12 -22 -92 -10 -92 14 0 21 18 44 45 60 32 18 148 9 171 -13z
m288 18 c22 -8 20 -22 -6 -60 -17 -25 -28 -32 -44 -28 -36 9 -54 -29 -54 -113
l0 -73 -45 0 -45 0 0 135 0 135 45 0 c29 0 45 -4 45 -12 0 -8 6 -6 17 5 17 17
58 22 87 11z m281 -14 c17 -19 18 -19 43 0 34 28 103 27 128 -1 16 -17 20 -42
24 -140 l5 -119 -47 0 -48 0 0 84 c0 98 -5 116 -32 116 -28 0 -48 -57 -48
-135 l0 -65 -45 0 -45 0 0 84 c0 96 -5 116 -29 116 -30 0 -51 -52 -51 -129 l0
-71 -45 0 -45 0 0 135 0 135 45 0 c25 0 45 -5 45 -11 0 -5 10 -3 22 5 32 23
101 21 123 -4z m452 5 c27 -19 43 -72 43 -142 0 -41 3 -53 16 -53 11 0 14 -6
9 -22 -4 -13 -9 -31 -12 -42 -4 -14 -11 -17 -36 -12 -18 4 -38 13 -46 21 -13
13 -17 12 -34 -3 -26 -23 -99 -23 -125 1 -59 54 -12 147 75 147 37 0 57 14 50
34 -8 21 -47 21 -47 0 0 -13 -7 -15 -42 -9 -70 12 -74 21 -29 66 26 26 36 29
93 29 41 0 71 -5 85 -15z m324 -14 c39 -39 38 -67 -2 -75 -49 -9 -57 -8 -64
14 -7 22 -35 26 -53 8 -18 -18 -15 -103 4 -122 18 -18 17 -18 38 -10 9 3 16
12 16 19 0 10 10 12 38 8 52 -8 60 -18 36 -50 -27 -36 -60 -53 -104 -53 -81 0
-140 61 -140 146 0 100 44 144 143 144 51 0 62 -4 88 -29z m295 -126 c-29 -77
-56 -157 -60 -177 -13 -73 -105 -113 -164 -72 l-22 15 20 29 c17 24 26 28 50
24 26 -6 29 -3 35 27 5 28 -5 58 -54 167 l-60 132 54 0 54 0 28 -75 29 -74 22
74 22 74 42 3 c24 2 46 1 50 -2 4 -3 -16 -69 -46 -145z"/>
<path d="M2315 1475 c-21 -21 -25 -33 -25 -88 0 -81 23 -117 76 -117 20 0 44
4 54 10 36 19 51 106 29 169 -19 54 -92 69 -134 26z"/>
<path d="M1440 1440 l0 -50 35 0 c44 0 65 34 47 75 -9 20 -19 25 -47 25 l-35
0 0 -50z"/>
<path d="M2840 1440 c0 -49 1 -50 29 -50 32 0 61 22 61 46 0 34 -20 54 -55 54
l-35 0 0 -50z"/>
<path d="M3493 1293 c-21 -8 -15 -43 7 -43 16 0 40 26 40 44 0 7 -30 6 -47 -1z"/>
<path d="M4520 1285 c-10 -12 -10 -19 -1 -28 14 -14 44 2 49 27 4 21 -31 22
-48 1z"/>
</g>
</svg>
